<svg width="76" height="34" viewBox="0 0 76 34" fill="none" xmlns="http://www.w3.org/2000/svg">
<rect opacity="0.1" width="76" height="34" rx="17" fill="url(#paint0_linear_192_2663)"/>
<path d="M18.008 21H19.496V17.628H21.068C22.892 17.628 24.536 16.992 24.536 14.844C24.536 12.792 23.036 12.12 21.116 12.12H18.008V21ZM19.496 16.32V13.488H21.128C22.46 13.488 23.06 13.908 23.06 14.892C23.06 15.912 22.46 16.32 21.14 16.32H19.496ZM27.994 21.132C29.542 21.132 31.102 20.148 31.102 17.82C31.102 15.468 29.542 14.508 27.994 14.508C26.434 14.508 24.886 15.468 24.886 17.82C24.886 20.148 26.446 21.132 27.994 21.132ZM27.994 19.896C26.866 19.896 26.374 19.032 26.374 17.82C26.374 16.536 26.926 15.768 27.994 15.768C29.11 15.768 29.614 16.632 29.614 17.82C29.614 19.128 29.062 19.896 27.994 19.896ZM32.3944 23.4H33.8704V20.292C34.3384 20.82 35.0104 21.096 35.6944 21.096C37.3264 21.096 38.4184 20.016 38.4184 17.808C38.4184 15.6 37.3504 14.508 35.8984 14.508C34.9504 14.508 34.2904 14.964 33.8704 15.468V14.628H32.3944V23.4ZM35.3704 19.92C34.8424 19.92 34.2664 19.644 33.8704 19.128V16.572C34.2184 16.152 34.8064 15.768 35.4184 15.768C36.3664 15.768 36.9424 16.476 36.9424 17.82C36.9424 19.236 36.4864 19.92 35.3704 19.92ZM41.4943 21.12C42.6463 21.12 43.4143 20.568 43.8223 20.136V21H45.3103V14.628H43.8223V19.056C43.2823 19.548 42.7423 19.884 42.0943 19.884C41.4463 19.884 41.1463 19.56 41.1463 18.852V14.628H39.6583V19.2C39.6583 20.46 40.3783 21.12 41.4943 21.12ZM47.0208 21H48.5088V12.12H47.0208V21ZM51.6223 21.096C52.5703 21.096 53.3263 20.844 53.9743 20.184C53.9743 20.544 54.0343 20.736 54.1183 21H55.6063C55.4743 20.676 55.4263 20.208 55.4263 19.44V16.812C55.4263 15.324 54.8383 14.508 53.1343 14.508C51.8143 14.508 50.7463 15.036 50.0623 15.66L50.7823 16.584C51.3223 16.152 52.0423 15.72 52.9303 15.72C53.6383 15.72 53.9743 15.996 53.9743 16.632V16.824C50.9983 17.16 49.8223 18.084 49.8223 19.464C49.8223 20.52 50.5903 21.096 51.6223 21.096ZM52.1623 19.956C51.6223 19.956 51.2743 19.692 51.2743 19.188C51.2743 18.492 52.2103 18.06 53.9743 17.82V19.224C53.5063 19.668 52.9183 19.956 52.1623 19.956ZM57.0155 21H58.4915V16.968C58.9115 16.284 59.5115 15.84 60.4595 15.84C60.5435 15.84 60.7835 15.852 60.8555 15.864L60.9035 14.508H60.8075C59.5955 14.508 58.9115 15.036 58.5155 15.672H58.4915V14.628H57.0155V21Z" fill="url(#paint1_linear_192_2663)"/>
<defs>
<linearGradient id="paint0_linear_192_2663" x1="-1.07772e-07" y1="-2.08772" x2="80.2193" y2="25.6943" gradientUnits="userSpaceOnUse">
<stop stop-color="#53E88B"/>
<stop offset="1" stop-color="#15BE77"/>
</linearGradient>
<linearGradient id="paint1_linear_192_2663" x1="17" y1="9.01754" x2="61.7063" y2="28.4986" gradientUnits="userSpaceOnUse">
<stop stop-color="#53E88B"/>
<stop offset="1" stop-color="#15BE77"/>
</linearGradient>
</defs>
</svg>
